<?xml version="1.0"?>
<svg version="1.1" xmlns="http://www.w3.org/2000/svg" width="400px" height="200px" style="border: dashed 2px #aaa"><path fill="#ffffff" d="M192.352,114.756c0,0.224-0.168,0.364-0.448,0.364l-2.8,0c-0.672,0-0.98-0.224-1.344-0.7l-6.048-7.756l-0.056,0l0,7.756c0,0.504-0.196,0.7-0.672,0.7l-2.24,0c-0.504,0-0.7-0.196-0.7-0.7l0-18.004c0-0.476,0.252-0.672,0.7-0.672l2.24,0c0.448,0,0.672,0.168,0.672,0.672l0,7.924l0.056,0l5.768-8.092c0.252-0.336,0.588-0.504,1.036-0.504l2.24,0c0.28,0,0.448,0.168,0.448,0.364c0,0.112-0.028,0.224-0.112,0.336l-6.44,8.652l7.448,9.156c0.14,0.168,0.252,0.364,0.252,0.504z M210.706,114.756c0,0.224-0.168,0.364-0.448,0.364l-2.8,0c-0.672,0-0.98-0.224-1.344-0.7l-6.048-7.756l-0.056,0l0,7.756c0,0.504-0.196,0.7-0.672,0.7l-2.24,0c-0.504,0-0.7-0.196-0.7-0.7l0-18.004c0-0.476,0.252-0.672,0.7-0.672l2.24,0c0.448,0,0.672,0.168,0.672,0.672l0,7.924l0.056,0l5.768-8.092c0.252-0.336,0.588-0.504,1.036-0.504l2.24,0c0.28,0,0.448,0.168,0.448,0.364c0,0.112-0.028,0.224-0.112,0.336l-6.44,8.652l7.448,9.156c0.14,0.168,0.252,0.364,0.252,0.504z"/><path fill="#" d=""/></svg>
